<?xml version="1.0" encoding="UTF-8" standalone="no"?>
<!-- Generator: Adobe Illustrator 19.0.0, SVG Export Plug-In . SVG Version: 6.00 Build 0)  -->

<svg
   xmlns:dc="http://purl.org/dc/elements/1.1/"
   xmlns:cc="http://creativecommons.org/ns#"
   xmlns:rdf="http://www.w3.org/1999/02/22-rdf-syntax-ns#"
   xmlns:svg="http://www.w3.org/2000/svg"
   xmlns="http://www.w3.org/2000/svg"
   xmlns:sodipodi="http://sodipodi.sourceforge.net/DTD/sodipodi-0.dtd"
   xmlns:inkscape="http://www.inkscape.org/namespaces/inkscape"
   version="1.1"
   id="Layer_1"
   x="0px"
   y="0px"
   viewBox="0 0 65.074997 57.700001"
   xml:space="preserve"
   sodipodi:docname="Squirrel-02.svg"
   width="65.074997"
   height="57.700001"
   inkscape:version="0.92.1 r15371"><metadata
     id="metadata11"><rdf:RDF><cc:Work
         rdf:about=""><dc:format>image/svg+xml</dc:format><dc:type
           rdf:resource="http://purl.org/dc/dcmitype/StillImage" /><dc:title></dc:title></cc:Work></rdf:RDF></metadata><defs
     id="defs9" /><sodipodi:namedview
     pagecolor="#ffffff"
     bordercolor="#666666"
     borderopacity="1"
     objecttolerance="10"
     gridtolerance="10"
     guidetolerance="10"
     inkscape:pageopacity="0"
     inkscape:pageshadow="2"
     inkscape:window-width="1920"
     inkscape:window-height="1027"
     id="namedview7"
     showgrid="false"
     fit-margin-top="0"
     fit-margin-left="0"
     fit-margin-right="0"
     fit-margin-bottom="0"
     inkscape:zoom="2.4583333"
     inkscape:cx="-21.626695"
     inkscape:cy="28.8"
     inkscape:window-x="-8"
     inkscape:window-y="-8"
     inkscape:window-maximized="1"
     inkscape:current-layer="Layer_1" /><style
     type="text/css"
     id="style2">
	.st0{fill:#333333;}
</style><g
     id="XMLID_1_"
     style="fill:#892a69;fill-opacity:1"
     transform="translate(-15.525,-19.1)"><path
       id="XMLID_5_"
       class="st0"
       d="m 64,19.1 c -9.1,0 -16.5,5.4 -16.5,12.1 0,8 2.1,12.5 0,25.1 C 47.5,37.7 36.1,30.1 31,30.1 31.2,28 29,27.4 29,27.4 c 0,0 -0.9,0.5 -1.2,1.4 -1.1,-1.3 -2.3,-1.1 -2.3,-1.1 L 24.9,30 c 0,0 -7.6,2.6 -7.6,13.3 0.8,1.4 6.3,2.5 10.2,1.8 3.7,0.2 2.8,3.3 1.9,4.1 -3.5,3.5 -6.7,-1.2 -10.8,-1.2 -4.1,0 -4.1,4.1 0,4.1 4.1,0 4.1,4.1 12.4,4.1 -12.8,5 0,16.5 0,16.5 h -4.1 c -4.1,0 -4.1,4.1 -4.1,4.1 H 47.6 C 60,76.8 68.2,72.7 68.2,62.5 68.2,59 66.4,55.1 64.1,52.1 59.5,46.1 65,41 68.2,43.8 71.4,46.6 80.6,47.9 80.6,35.5 80.5,26.5 73.1,19.1 64,19.1 Z M 24.8,39.7 c -1.2,0 -2.1,-0.9 -2.1,-2.1 0,-1.2 0.9,-2.1 2.1,-2.1 1.2,0 2.1,0.9 2.1,2.1 -0.1,1.2 -1,2.1 -2.1,2.1 z"
       style="fill:#892a69;fill-opacity:1"
       inkscape:connector-curvature="0" /></g></svg>